<?xml version="1.0" encoding="UTF-8"?>
<svg id="Vrstva_1" xmlns="http://www.w3.org/2000/svg" viewBox="0 0 324.12 298">
  <defs>
    <style>
      .cls-1 {
        stroke-width: 2px;
      }

      .cls-1, .cls-2, .cls-3, .cls-4 {
        stroke-miterlimit: 10;
      }

      .cls-1, .cls-2, .cls-4 {
        fill: none;
        stroke: #300a13;
      }

      .cls-2, .cls-3 {
        stroke-width: 3px;
      }

      .cls-5 {
        fill: #4a2830;
      }

      .cls-3 {
        fill: #bc2347;
        stroke: #431426;
      }

      .cls-6 {
        fill: #c34962;
      }

      .cls-7 {
        fill: #64434a;
      }

      .cls-8 {
        fill: #300a13;
      }

      .cls-9 {
        fill: #d0a969;
      }
    </style>
  </defs>
  <path class="cls-3" d="M75.67,81.44s-47.61,32.13-49.22,91.49c0,0-2.09,6.6-10.3-.26s-14.01,3.66-14.01,3.66c-1.94,4.32,13.69,43.09,42.83,43.07,0,0,46.99-3.79,46-56.22,0,0-6.69-10.6-15.2-9.23s-10.72,14.72-16.68,15.74-8.26-8-15.74,7.15c0,0-4.43,6.89-6.55-2.13s7.74-55.19,43.74-77.3l-4.86-15.98Z"/>
  <path class="cls-2" d="M12.77,118.48h66.13s36.6,68.3-17.7,97.91c0,0-18.89,6.81-30.47,0s-47.23-26.89-17.96-97.91Z"/>
  <path class="cls-2" d="M30.73,216.4c6.54,14.67,9.36,12.94,9.66,37.74-1.15,40.38-25.23,36.98-26.6,42.36h63.02c-.98-7.94-25.33-1.8-26.34-41.6.6-24.89,3.92-23.94,10.72-38.51"/>
  <path class="cls-5" d="M81.54,101.57l-5.87-24.06s1.5-6.27,18.96-8.3l1.4,3.19,36.77-9s-1.46-19.78,23.13-26.38S287.07,3.31,287.07,3.31c0,0,20.52-5.33,22.72,3.32s12.51,52.6,12.51,52.6c0,0,3.7,8.59-16.51,13.28s-132.68,29.06-132.68,29.06c0,0-27.48,5.37-33.53-12.72l-36.09,8.09s-8.46,8.39-21.96,4.64Z"/>
  <polygon class="cls-9" points="229.28 17.81 169.13 33.48 185.37 98.95 246.77 85.26 229.28 17.81"/>
  <path class="cls-2" d="M81.54,101.57l-5.87-24.06s1.09-4.79,18.96-8.3l1.4,3.19,36.77-9s-.79-19.74,23.13-26.38S287.07,3.31,287.07,3.31c0,0,20.17-5.79,22.72,3.32s12.51,52.6,12.51,52.6c0,0,4,8.09-16.51,13.28s-132.68,29.06-132.68,29.06c0,0-29.02,5.91-33.53-12.72l-36.09,8.09s-7.91,8.34-21.96,4.64Z"/>
  <line class="cls-2" x1="96.69" y1="76.76" x2="100.35" y2="92.25"/>
  <line class="cls-2" x1="81.28" y1="81.44" x2="85.11" y2="95.82"/>
  <line class="cls-2" x1="168.42" y1="33.66" x2="184.78" y2="99.08"/>
  <line class="cls-2" x1="229.94" y1="17.81" x2="246.88" y2="85.71"/>
  <path class="cls-2" d="M182.31,53.29s8.68,12.51,10.4,21.64"/>
  <path class="cls-1" d="M195.54,43.99c-.21.94-1.92-6.7-3.66-6.81-1.96-.12-3.32,6.81-3.32,6.81,0,0-2-1.91-2.81-1.74s-.72,3.91-.72,3.91l-1.7.21s3.49,5.57,5.57,6.64c0,0,1.62,9.06,6.64,9.15s4.09-.55,4.09-2.94c0,0,4.6-1.23,4.47-2.81s-4.04-4.41-4.04-4.41c0,0,7.49-3.16,4.43-10.91,0,0-4.04-3.62-8.94,2.89Z"/>
  <line class="cls-4" x1="198.76" y1="55.58" x2="187.69" y2="47.28"/>
  <path class="cls-4" d="M191.93,44.25s-.16,4.74,1.72,11.33"/>
  <path class="cls-4" d="M200.87,44.54l-8.29,6.41"/>
  <circle class="cls-8" cx="211.32" cy="45.37" r="2.37"/>
  <circle class="cls-8" cx="213.79" cy="53.23" r="3.31"/>
  <circle class="cls-8" cx="208.02" cy="60.75" r="2.27"/>
  <circle class="cls-8" cx="202.24" cy="67.44" r="2.79"/>
  <circle class="cls-8" cx="210.66" cy="70.71" r="3.67"/>
  <circle class="cls-8" cx="221.08" cy="69.77" r="3.2"/>
  <circle class="cls-8" cx="215.57" cy="62.34" r="3.27"/>
  <circle class="cls-8" cx="224.59" cy="62.25" r="2.95"/>
  <circle class="cls-8" cx="229.92" cy="73.12" r="3.96"/>
  <line class="cls-1" x1="188.9" y1="53.01" x2="184.21" y2="56.21"/>
  <ellipse class="cls-7" cx="89.04" cy="79.46" rx="5.43" ry="2.33" transform="translate(-17.72 26.13) rotate(-15.2)"/>
  <path class="cls-7" d="M136.34,70.78s1.47-3.57-17.87,1.66-17.43,4.34-17.17,6.06,3.89,2.45,18.64-1.74,16.66-4.77,16.4-5.98Z"/>
  <path class="cls-7" d="M164.36,54.61s2.81-.68,2.04-3.81-.38-4.28-4.15-3.64-26.81,6.77-23.43,16.95c0,0,2.3,1.82,3.57-1.12s14.43-7.25,21.96-8.38Z"/>
  <path class="cls-7" d="M239.66,28.25s-3.51.89-2.36,4.79,5.23,2.23,5.23,2.23c20.62-5.37,53.28-14.68,56.55-14.55,0,0,4.47.13,3.64-3.38s-6.89-3.19-6.89-3.19c-3.44.2-36.01,8.98-56.17,14.11Z"/>
  <path class="cls-6" d="M19.59,181.53s7.57-3.32,13.36,12.77c0,0,4.77,10.38,1.87,12.09s-7.66-.77-11.91-8.09-6.47-14.72-3.32-16.77Z"/>
  <path class="cls-6" d="M73.64,174.46s-5.19-1.79-7.32,9.53c-.57,3.53-5.01,6.44-2.3,10.07,3.07,2.09,10.55-7.78,11.23-11.35s.4-8.37-1.62-8.26Z"/>
</svg>