<?xml version="1.0" encoding="UTF-8"?>
<svg id="Vrstva_1" xmlns="http://www.w3.org/2000/svg" viewBox="0 0 347.6 358.01">
  <defs>
    <style>
      .cls-1 {
        fill: #8c2e2c;
      }
    </style>
  </defs>
  <circle class="cls-1" cx="29.26" cy="133.13" r="2.47"/>
  <ellipse class="cls-1" cx="45.9" cy="148.36" rx="4.77" ry="5.32"/>
  <ellipse class="cls-1" cx="7.94" cy="158.91" rx="3.91" ry="3.62"/>
  <ellipse class="cls-1" cx="5.26" cy="186.87" rx="2.68" ry="2.98"/>
  <ellipse class="cls-1" cx="30.16" cy="285.6" rx="4.43" ry="4.77"/>
  <ellipse class="cls-1" cx="16.67" cy="308.79" rx="3.02" ry="2.77"/>
  <ellipse class="cls-1" cx="70.84" cy="321.34" rx="4.51" ry="5.53"/>
  <ellipse class="cls-1" cx="79.35" cy="346.4" rx="2.98" ry="3.11"/>
  <ellipse class="cls-1" cx="196.07" cy="339.17" rx="3.36" ry="2.77"/>
  <circle class="cls-1" cx="204.5" cy="304.53" r="4.38"/>
  <ellipse class="cls-1" cx="238.58" cy="327.98" rx="3.06" ry="3.32"/>
  <ellipse class="cls-1" cx="319.48" cy="260.23" rx="3.02" ry="3.32"/>
  <ellipse class="cls-1" cx="305.99" cy="232.28" rx="4" ry="4.55"/>
  <circle class="cls-1" cx="338.33" cy="224.06" r="2.81"/>
  <ellipse class="cls-1" cx="345.05" cy="177.34" rx="2.55" ry="2.81"/>
  <ellipse class="cls-1" cx="256.77" cy="75.47" rx="3.62" ry="3.32"/>
  <ellipse class="cls-1" cx="232.01" cy="69.4" rx="4.85" ry="5.26"/>
  <ellipse class="cls-1" cx="242.21" cy="49.48" rx="2.51" ry="3"/>
  <ellipse class="cls-1" cx="210.37" cy="31.47" rx="3.38" ry="2.91"/>
  <ellipse class="cls-1" cx="154.86" cy="54.85" rx="4.45" ry="4.7"/>
  <ellipse class="cls-1" cx="144.59" cy="3.14" rx="2.98" ry="3.14"/>
  <path class="cls-1" d="M31.23,168.56s-2.9-2.94-5.46-2.9-7.88,5.81-7.5,9.19,4.28,9.67,7.18,9.57,9.77-6.77,9.83-9.38-4.05-6.48-4.05-6.48Z"/>
  <path class="cls-1" d="M30.83,332.58s3.77-39.06,20.81-34.72c0,0,4.47,2.49-8.94,19.09-1.02,4.4.35,8.93.26,15.64.96,10.13-6.19,25.75-13.72,25.42-12.69-4.82.14-8.65,1.6-25.42Z"/>
  <path class="cls-1" d="M61.65,328.56s-3.03-3.03-5.97-2.78-6.99,4.95-6.8,9,4.24,9.45,7.6,9.41,9.64-6.13,9.48-9.48-4.31-6.16-4.31-6.16Z"/>
  <path class="cls-1" d="M227.67,315.17s-2.65-3.61-6.32-3.45-7.91,5.81-7.5,9.8,3.26,8.65,7.34,8.84,9.89-7.02,9.96-9.1-3.48-6.1-3.48-6.1Z"/>
  <path class="cls-1" d="M253.89,313.65s-14.55-12.51-9.57-18.38,10.66,3.32,22.09,18.38,17.68,8.86,16.79,16.72-9.64,4.67-15.77-7.4c-5.33-5.87-8.46-6.1-13.53-9.32Z"/>
  <path class="cls-1" d="M325.79,210.17s-3.83-3.4-6.17-2.89-7.49,5.19-6.89,9.66,4.51,9.28,7.15,9.32,10-7.2,10-9.52-4.09-6.57-4.09-6.57Z"/>
  <path class="cls-1" d="M214.09,48s-2.85-4-5.83-3.45-7.45,6-7.32,10,4.89,8.81,7.49,8.85,9.36-5.49,9.83-9.11-4.17-6.3-4.17-6.3Z"/>
  <path class="cls-1" d="M159.03,28.34s-3.66-3.96-6.51-3.74-7.02,6.26-6.68,10.13,3.7,9.02,7.23,8.85,9.45-5.62,9.19-8.98-3.23-6.26-3.23-6.26Z"/>
  <path class="cls-1" d="M163.96,79.7s-6.49-5.13,9.02-32.06c5.04-8.23,5.07-34.6,13.72-35.49,9.25-.96-8.36,35.3-8.36,35.3-2.07,3.77-9.03,33.87-14.38,32.26Z"/>
  <path class="cls-1" d="M126.77,24.58s-13.91.84-13.02,13.6,19.28,27.06,22.98,47.23,6.13,29.62-2.68,30.26-16.72-15.96-28.6-9.45,15,22.79,13.09,31.85-8.74,9.06-10.34,9.06-8.17-9.57-15.45-4.66,5.11,12.7,4.02,18.26-2.55,7.72-23.3,6.32-26.36,5.88-26.49,11.52,5.55,23.26-17.81,26.26c-7.95.93-14.7-5.77-20.11-6.13,0,0-8.87,2.36-9.06,7.66s2.87,10.02,13.02,9.64,26.04-2.17,23.55,12.38-12.7,20.43-11.81,29.55,33.68,10.7,44.23,27.21,8.26,38.38,21.7,39.57,23.83-35.91,33.53-35.4,2.98,28.17,17.7,28.77-4.34-32.51-4-39.74,14.3-10.13,18.55-2.89,24.17,45.96,36.85,45.57,3.83-11.02.6-13.57-18.8-29.19,2.13-31.74,18.04,24.85,36.68,24.85-17.96-21.02-6.89-26.21,18.38,20.09,39.4,20.85,18.55-22.47,18.55-22.47c-.54-10.13-8.17-25.54-8.51-28.68-2.19-3.84,17.28-14.81,17.28-21.11,0,0-4.43-16.85,1.28-23.66s44.43-11.66,43.23-23.4-46.47-6.98-47.15-17.19,27.91-10.3,24.77-20-22.81,6.55-25.02,4.43-6.38-20.51-14.81-26.81-24.51-8.77-31.66-14.21-37.28-30.98-47.49-31.32-28.26,31.57-41.87,30.21-13.28-40.26-11.83-52.17-4.72-24.48-15.26-24.24Z"/>
</svg>